<svg aria-hidden="true" style="position: absolute; width: 0; height: 0; overflow: hidden;" version="1.1" xmlns="http://www.w3.org/2000/svg" xmlns:xlink="http://www.w3.org/1999/xlink">
<defs>
<symbol id="icon-monitor1" viewBox="0 0 32 32">
<path d="M17 24.938h-3v1.562l-3 0.5v1h8.938v-0.938l-2.938-0.562v-1.562zM27 4h-23c-1.105 0-2 0.895-2 2v14c0 1.104 0.895 2 2 2h23c1.105 0 2-0.896 2-2v-14c0-1.105-0.895-2-2-2zM15.375 20.5c-0.552 0-1-0.448-1-1 0-0.553 0.448-1 1-1 0.553 0 1 0.447 1 1 0 0.552-0.448 1-1 1zM27 17h-23v-11h23v11z"></path>
</symbol>
<symbol id="icon-drink" viewBox="0 0 32 32">
<path d="M23.055 8.906c0.557 0 1.008 0.451 1.008 1.008l-1.827 20.093c0 0.557-0.451 1.008-1.008 1.008h-10.457c-0.557 0-1.008-0.451-1.008-1.008l-1.825-20.093c0-0.557 0.451-1.008 1.008-1.008h9.010l1.066-5.436 4.839-2.485-0.348 1.298-3.592 1.801-0.938 4.822h4.072zM17.514 15.961h4.029l-1.134 13.038h-8.818l-1.134-13.038h6.029l1.259-6.047h-8.8l1.826 20.093h10.456l1.827-20.093h-4.282l-1.258 6.047z"></path>
</symbol>
<symbol id="icon-suitcase" viewBox="0 0 32 32">
<path d="M27 29h-4v-21h4c1.104 0 2 0.896 2 2v17c0 1.104-0.896 2-2 2zM10 8v0-2c0-1.105 0.896-2 2-2h7c1.104 0 2 0.895 2 2v23h-11v-21zM12 8h7c0 0 0-0.448 0-1 0-0.553-0.448-1-1-1h-5c-0.553 0-1 0.447-1 1 0 0.552 0 1 0 1zM2 27v-17c0-1.104 0.896-2 2-2h4v21h-4c-1.104 0-2-0.896-2-2z"></path>
</symbol>
<symbol id="icon-refrigerator" viewBox="0 0 32 32">
<path d="M8 27c0 0.553 0.447 1 1 1h1v1h2v-1h8v1h2v-1h1c0.552 0 1-0.447 1-1v-8h-16v8zM9 20h1v3h-1v-3zM23 4h-14c-0.553 0-1 0.448-1 1v13h16v-13c0-0.552-0.447-1-1-1zM10 17h-1v-3h1v3z"></path>
</symbol>
<symbol id="icon-diamond" viewBox="0 0 32 32">
<path d="M2.103 12.052l13.398 16.629-5.373-16.629h-8.025zM11.584 12.052l4.745 16.663 4.083-16.663h-8.828zM17.051 28.681l12.898-16.629h-7.963l-4.935 16.629zM29.979 10.964l-3.867-6.612-3.869 6.612h7.736zM24.896 3.973h-7.736l3.867 6.839 3.869-6.839zM19.838 10.964l-3.867-6.612-3.868 6.612h7.735zM14.839 3.973h-7.735l3.868 6.839 3.867-6.839zM5.889 4.352l-3.867 6.612h7.735l-3.868-6.612z"></path>
</symbol>
<symbol id="icon-tools" viewBox="0 0 32 32">
<path d="M27.783 7.936c0.959 2.313 0.502 5.074-1.379 6.955-2.071 2.071-5.201 2.395-7.634 1.022l-1.759 1.921 1.255 1.26 0.75-0.75c0.383-0.384 1.005-0.384 1.388 0l6.082 6.144c0.384 0.383 0.384 1.005 0 1.388l-2.776 2.776c-0.383 0.384-1.005 0.384-1.388 0l-6.082-6.144c-0.384-0.383-0.384-1.005 0-1.388l0.685-0.685-1.196-1.199-8.411 9.189c-0.767 0.767-2.010 0.767-2.776 0l-0.694-0.694c-0.767-0.767-0.767-2.010 0-2.776l9.582-8.025-6.364-6.381-2.010-0.001-2.326-3.74 1.872-1.875 3.825 2.341 0.025 1.968 6.438 6.463 1.873-1.568c-1.831-2.496-1.64-6.012 0.616-8.268 1.872-1.872 4.618-2.337 6.925-1.396l-4.124 4.067 3.471 3.471 4.132-4.075zM6.15 25.934c-0.383-0.383-1.004-0.383-1.388 0-0.384 0.384-0.384 1.005 0 1.389 0.384 0.383 1.005 0.383 1.388 0 0.384-0.385 0.384-1.006 0-1.389z"></path>
</symbol>
<symbol id="icon-screwdriver" viewBox="0 0 32 32">
<path d="M27.393 2.664l-3.646 2.218-0.026 2.005-8.048 8.028-1.103-1.103c-0.391-0.391-1.024-0.391-1.415 0s-0.751 0.662-0.751 0.662l0.41 0.41c-0.004-0.004-0.009-0.008-0.013-0.012-1.988 1.987-3.27 2.562-3.27 2.562l-6.238 6.321c-0.391 0.392-0.391 1.022 0 1.414l3.536 3.536c0.39 0.391 1.023 0.391 1.414 0l6.237-6.321c0 0 0.574-1.28 2.564-3.271l0.354 0.354c0 0 0.315-0.316 0.707-0.707 0.391-0.391 0.391-1.023 0-1.414l-1.072-1.072 8.018-8.057 2.047-0.001 2.203-3.644-1.908-1.908zM3.979 24.402l6.348-6.348 0.707 0.706-6.348 6.349-0.707-0.707zM5.393 25.861l6.348-6.35 0.707 0.709-6.348 6.348-0.707-0.707zM7.514 27.982l-0.707-0.707 6.348-6.349 0.708 0.707-6.349 6.349z"></path>
</symbol>
<symbol id="icon-paint" viewBox="0 0 32 32">
<path d="M26 13h-10v2h-2v-3h12v-6h-1v3c0 0.552-0.448 1-1 1h-18c-0.553 0-1-0.448-1-1v-4c0-0.553 0.447-1 1-1h18c0.552 0 1 0.447 1 1h2v8h-1zM23 5h-16v1h16v-1zM17 26c0 1.104-0.896 2-2 2s-2-0.896-2-2v-10h4v10zM15 24.583c-0.553 0-1 0.448-1 1 0 0.553 0.447 1 1 1 0.552 0 1-0.447 1-1 0-0.552-0.448-1-1-1z"></path>
</symbol>
<symbol id="icon-pen1" viewBox="0 0 32 32">
<path d="M29.024 6.499l-2.467 2.467-3.523-3.523 2.467-2.467c0.973-0.973 2.551-0.973 3.523 0s0.973 2.55 0 3.523zM27.614 9.317c0.195-0.194 0.511-0.194 0.705 0 0.195 0.195 0.195 0.511 0 0.705l-9.16 9.161c-0.195 0.194-0.511 0.194-0.705 0s-0.194-0.51 0-0.704l5.99-5.99-4.934-4.934 2.114-2.113 4.933 4.933 1.057-1.058zM19.511 8.966l3.523 3.523-14.094 14.094-3.523-3.523 14.094-14.094zM2.246 29.754l2.466-5.989 3.523 3.523-5.989 2.466z"></path>
</symbol>
<symbol id="icon-car" viewBox="0 0 32 32">
<path d="M27 22h-23c-1.104 0-2-0.896-2-2v-5c0-1.104 0.896-2 2-2h1c0 0 1.479-4.5 1.916-6s0.896-2 2.001-2h13.166c1.104 0 1.438 0.312 2 2s1.917 6 1.917 6h1c1.104 0 2 0.896 2 2v5c0 1.104-0.896 2-2 2zM9 20h13v-1h-13v1zM22 13c0-1.104-0.896-2.125-2-2.125s-2 1.021-2 2.125c0 0.026 4 0.026 4 0zM9 18h13v-1h-13v1zM9 16h13v-1h-13v1zM4.062 17c0 1.104 0.896 2 2 2s2-0.896 2-2-0.896-2-2-2-2 0.896-2 2zM23.083 7c-0.25-0.688-0.447-1-1-1h-6.083v1h0.5c0.276 0 0.5 0.224 0.5 0.5s-0.224 0.5-0.5 0.5h-2c-0.276 0-0.5-0.224-0.5-0.5s0.224-0.5 0.5-0.5h0.5v-1h-6.083c-0.553 0-0.751 0.125-1 1-0.251 0.875-1.917 6-1.917 6h11.46c0.023-1.364 1.13-2.643 2.495-2.643s2.472 1.278 2.496 2.643h2.549c0 0-1.667-5.312-1.917-6zM24.938 15.062c-1.104 0-2 0.896-2 2s0.896 2 2 2 2-0.896 2-2-0.896-2-2-2zM7 25.5c0 0.828-0.672 1.5-1.5 1.5s-1.5-0.672-1.5-1.5v-2.5h3v2.5zM27 25.5c0 0.828-0.672 1.5-1.5 1.5s-1.5-0.672-1.5-1.5v-2.5h3v2.5z"></path>
</symbol>
<symbol id="icon-bike" viewBox="0 0 38 32">
<path d="M29.998 28.197c-4.212 0-7.627-3.414-7.627-7.627 0-3.090 1.842-5.745 4.484-6.943l-1.014-2.283 0.165 0.399-6.944 9.321v1.869h1.017v1.018h-3.052v-1.018h1.018v-1.018l-2.877-0.27c-0.524 3.701-3.696 6.551-7.542 6.551-4.212 0.001-7.626-3.413-7.626-7.626 0-4.212 3.414-7.626 7.627-7.626 1.101 0 2.145 0.238 3.090 0.657l1.906-4.788-0.865-2.416c-0.38 0-0.734 0-1.017 0-0.954 0-0.699-1.017-0.699-1.017s0.063-0.89 0.763-0.89 0.699 0.636 1.843 0.636c1.095 0 2.669 0.317 2.669 0.317s0.699 0.953-0.635 0.953c-0.604 0-1.269 0-1.907 0l0.723 2.597h11.052l-0.868-1.973h-0.675v-1.016h4.067v1.017h-2.298l2.977 6.26c0.71-0.219 1.465-0.337 2.246-0.337 4.212 0 7.627 3.414 7.627 7.626-0.001 4.213-3.416 7.627-7.628 7.627zM7.627 13.96c-3.651 0-6.61 2.959-6.61 6.61s2.959 6.609 6.61 6.609c3.319 0 6.060-2.449 6.53-5.639l-5.294-0.545c-0.084 0.477-0.481 0.846-0.982 0.846-0.562 0-1.017-0.455-1.017-1.018 0-0.561 0.455-1.018 1.017-1.018 0.12 0 0.232 0.031 0.339 0.070l2.121-5.33c-0.829-0.372-1.746-0.585-2.714-0.585zM9.152 20.125l5.079 0.537c0.001-0.031 0.005-0.061 0.005-0.092 0-2.35-1.229-4.408-3.077-5.581l-2.007 5.136zM13.077 10.082l-1.543 3.948c2.225 1.332 3.719 3.759 3.719 6.541 0 0.066-0.008 0.133-0.010 0.199l1.726 0.182-3.892-10.87zM24.978 9.396v0.614h-11.12l4.050 10.839 7.687-10.065-0.617-1.388zM29.998 13.96c-0.637 0-1.251 0.095-1.834 0.264l2.374 5.424c0.482 0.078 0.858 0.48 0.858 0.984 0 0.562-0.455 1.018-1.017 1.018s-1.018-0.455-1.018-1.018c0-0.273 0.111-0.521 0.289-0.705l-2.384-5.372c-2.287 1.040-3.879 3.338-3.879 6.014 0 3.65 2.959 6.609 6.609 6.609s6.609-2.959 6.609-6.609-2.957-6.609-6.607-6.609z"></path>
</symbol>
<symbol id="icon-plane" viewBox="0 0 32 32">
<path d="M15.521 3.91c0.828 0 1.5 0.672 1.5 1.5v7.75l10 6.25v2.688l-10-3.375v5.25l2.039 2.029-0.001 2.084-3.538-1.176-3.487 1.18 0.015-2.189 1.91-1.865 0.017-5.312-9.997 3.436 0.021-2.75 10.007-6.313 0.016-7.688c-0.002-0.827 0.67-1.499 1.498-1.499z"></path>
</symbol>
<symbol id="icon-diamond1" viewBox="0 0 32 32">
<path d="M31.414 9.677l-5.080-5.081c-0.375-0.375-0.885-0.586-1.414-0.586h-17.839c-0.53 0-1.039 0.211-1.414 0.586l-5.080 5.081c-0.393 0.392-0.589 0.909-0.587 1.427 0.003 0.47 0.171 0.939 0.506 1.316l13.999 14.908c0.38 0.428 0.924 0.672 1.495 0.672s1.115-0.244 1.494-0.672l14-14.908c0.342-0.385 0.51-0.867 0.506-1.348-0.004-0.506-0.201-1.010-0.586-1.395zM18.219 11.010h-4.439l2.22-1.849 2.219 1.849zM16.782 8.51l2.732-2.278 2.018 2.018-2.532 2.109-2.218-1.849zM13 10.359l-2.532-2.109 2.018-2.018 2.733 2.278-2.219 1.849zM18.49 12.010l-2.49 12.453-2.49-12.453h4.98zM19.51 12.010h4.906l-7.359 12.269 2.453-12.269zM19.779 11.010l2.463-2.051 2.051 2.051h-4.514zM20.707 6.010h3.512l-1.916 1.597-1.596-1.597zM16 7.86l-2.22-1.85h4.438l-2.218 1.85zM9.696 7.607l-1.916-1.597h3.513l-1.597 1.597zM9.758 8.959l2.462 2.051h-4.513l2.051-2.051zM12.49 12.010l2.453 12.269-7.36-12.269h4.907zM12.704 22.488l-9.84-10.478h3.554l6.286 10.478zM25.582 12.010h3.555l-9.842 10.48 6.287-10.48zM25.707 11.010l-2.693-2.693 2.297-1.915 4.607 4.608h-4.211zM6.686 6.4l2.301 1.917-2.694 2.693h-4.287l4.68-4.61z"></path>
</symbol>
<symbol id="icon-phone1" viewBox="0 0 32 32">
<path d="M24 0h-16c-1.658 0-3 1.343-3 3v26c0 1.658 1.343 3 3 3h16c1.656 0 3-1.344 3-3v-26c0-1.658-1.344-3-3-3zM25 29c0 0.551-0.449 1-1 1h-16c-0.552 0-1-0.447-1-1v-2.004h18v2.004zM25 25.996h-18v-19.996h18v19.996zM25 5h-18v-2c0-0.552 0.448-1 1-1h16c0.551 0 1 0.448 1 1v2zM18 3.5c0 0.276-0.225 0.5-0.5 0.5h-3c-0.277 0-0.5-0.224-0.5-0.5v0c0-0.277 0.223-0.5 0.5-0.5h3c0.275 0 0.5 0.223 0.5 0.5v0zM17 28.496c0 0.275-0.225 0.5-0.5 0.5h-1c-0.276 0-0.5-0.225-0.5-0.5v0c0-0.277 0.224-0.5 0.5-0.5h1c0.275 0 0.5 0.223 0.5 0.5v0z"></path>
</symbol>
<symbol id="icon-clock" viewBox="0 0 32 32">
<path d="M15 10c0-0.552 0.448-1 1-1s1 0.448 1 1c0 0.552-0.448 1-1 1s-1-0.448-1-1zM15 22c0-0.552 0.448-1 1-1s1 0.448 1 1c0 0.552-0.448 1-1 1s-1-0.448-1-1zM9 16c0-0.552 0.448-1 1-1s1 0.448 1 1c0 0.552-0.448 1-1 1s-1-0.448-1-1zM21 16c0-0.552 0.448-1 1-1s1 0.448 1 1c0 0.552-0.448 1-1 1s-1-0.448-1-1zM10.757 20.242c0-0.552 0.448-1 1-1s1 0.448 1 1c0 0.552-0.448 1-1 1s-1-0.448-1-1zM10.757 11.757c0-0.552 0.448-1 1-1s1 0.448 1 1c0 0.552-0.448 1-1 1s-1-0.448-1-1zM19.242 20.242c0-0.552 0.448-1 1-1s1 0.448 1 1c0 0.552-0.448 1-1 1s-1-0.448-1-1zM26 14c-0.070 0-0.129 0.033-0.197 0.040-0.348-1.745-1.17-3.306-2.297-4.594l-1.436-7.812c-0.175-0.947-1.002-1.634-1.966-1.634h-8c-0.964 0-1.79 0.688-1.967 1.635l-1.4 7.549c-1.68 1.787-2.737 4.168-2.737 6.816 0 2.583 1.014 4.905 2.621 6.678l1.412 7.688c0.176 0.946 1.003 1.634 1.967 1.634h8c0.963 0 1.789-0.688 1.967-1.635l1.424-7.682c1.189-1.311 2.053-2.92 2.412-4.725 0.068 0.009 0.127 0.042 0.197 0.042 1.104 0 2-0.896 2-2 0-1.105-0.896-2-2-2zM12.104 2h8l1 5.387c-1.477-0.859-3.168-1.387-5-1.387-1.831 0-3.523 0.528-5 1.387l1-5.387zM20 30h-8l-1-5.387c1.476 0.858 3.168 1.387 5 1.387 1.831 0 3.524-0.529 5-1.387l-1 5.387zM16 24c-4.411 0-8-3.59-8-8s3.589-8 8-8c4.411 0 8 3.589 8 8 0 4.41-3.59 8-8 8zM20.941 11.026c0.121 0.121 0.133 0.316 0.028 0.449l-2.426 3.021-1.848 2.225c-0.189 0.182-0.449 0.275-0.699 0.277-0.269-0.002-0.52-0.106-0.707-0.292s-0.289-0.435-0.289-0.698c0-0.272 0.105-0.526 0.296-0.718l5.192-4.285c0.137-0.11 0.332-0.1 0.453 0.021z"></path>
</symbol>
<symbol id="icon-clip" viewBox="0 0 32 32">
<path d="M29.363 4.637c3.516 3.514 3.516 9.213 0 12.727l-10.967 10.968c-0.391 0.392-1.023 0.392-1.414 0-0.393-0.391-0.393-1.022 0-1.414l10.826-10.827c2.734-2.734 2.734-7.164-0.002-9.899-2.73-2.734-7.164-2.734-9.898 0l-14.447 14.277c-1.953 1.952-1.953 5.118 0 7.070 1.953 1.953 5.117 1.953 7.070 0l14.59-14.417c1.17-1.17 1.17-3.073 0-4.243s-3.072-1.169-4.242 0l-10.969 10.969c-0.391 0.391-1.023 0.391-1.414 0-0.391-0.392-0.391-1.023 0-1.415l10.968-10.968c1.951-1.952 5.117-1.952 7.070 0s1.953 5.118 0 7.071l-14.59 14.418c-2.728 2.729-7.169 2.729-9.898 0s-2.729-7.171 0-9.9l14.59-14.417c3.514-3.516 9.213-3.516 12.727 0z"></path>
</symbol>
<symbol id="icon-basketball3" viewBox="0 0 32 32">
<path d="M4.088 17.99c-0.058-0.489-0.088-0.988-0.088-1.493 0-2.803 0.922-5.39 2.48-7.474 3.040 0.159 5.887 1.052 8.365 2.505-1.866 3.831-5.797 6.47-10.345 6.47-0.119 0-0.393-0.007-0.412-0.007v0zM4.25 18.995c1.157 5.707 6.202 10.002 12.25 10.002 0.332 0 0.66-0.013 0.986-0.038v0c-0.316-1.099-0.486-2.261-0.486-3.462 0-3.402 1.359-6.487 3.564-8.741-1.32-1.848-2.971-3.442-4.867-4.697-2.047 4.112-6.292 6.938-11.198 6.938-0.084 0-0.167-0.001-0.25-0.002v0 0zM15.733 4.021c-3.351 0.203-6.345 1.726-8.47 4.055v0c2.888 0.259 5.596 1.147 7.983 2.527 0.488-1.275 0.755-2.659 0.755-4.106 0-0.85-0.092-1.679-0.267-2.477v0 0zM16.75 4c5.593 0.11 10.285 3.893 11.764 9.036-2.752 0.215-5.253 1.32-7.216 3.028-1.41-1.944-3.169-3.618-5.187-4.929 0.573-1.434 0.888-2.999 0.888-4.637 0-0.855-0.086-1.691-0.25-2.498v0zM23.974 26.518c-1.58 1.181-3.449 1.996-5.481 2.322v0c-0.321-1.058-0.493-2.18-0.493-3.342 0-3.056 1.192-5.833 3.136-7.892 1.65 2.603 2.668 5.645 2.839 8.912v0 0zM24.921 25.735c2.506-2.286 4.079-5.578 4.079-9.238 0-0.848-0.084-1.676-0.245-2.476-2.636 0.169-5.030 1.225-6.886 2.873 1.68 2.588 2.763 5.6 3.053 8.84v0 0z"></path>
</symbol>
<symbol id="icon-baseball-set1" viewBox="0 0 32 32">
<path d="M27.782 24.266c-0.221-2.106-1.894-3.779-4-4v0c0.016 0.156 0.025 0.315 0.025 0.475 0 2.485-2.015 4.5-4.5 4.5-0.16 0-0.319-0.008-0.475-0.025 0.221 2.106 1.894 3.779 4 4-0.016-0.156-0.025-0.315-0.025-0.475 0-2.485 2.015-4.5 4.5-4.5 0.16 0 0.319 0.008 0.475 0.025v0zM27.776 25.272c-0.242 2.061-1.877 3.696-3.938 3.938-0.021-0.153-0.031-0.31-0.031-0.469 0-1.933 1.567-3.5 3.5-3.5 0.159 0 0.316 0.011 0.469 0.031v0zM22.775 20.272c-2.061 0.242-3.696 1.877-3.938 3.938 0.153 0.021 0.31 0.031 0.469 0.031 1.933 0 3.5-1.567 3.5-3.5 0-0.159-0.011-0.316-0.031-0.469v0zM13.117 15.88l-7.39 8.375 2.285 2.285 8.375-7.39-3.27-3.27zM13.78 15.128l9.762-11.064c1.204-1.364 3.207-1.423 4.486-0.144l0.319 0.319c1.278 1.278 1.214 3.287-0.144 4.486l-11.064 9.762-3.359-3.359zM7.328 27.269c0.185 0.527 0.068 1.138-0.354 1.559-0.59 0.59-1.536 0.586-2.121-0l-1.414-1.414c-0.584-0.584-0.586-1.536-0-2.121 0.424-0.424 1.031-0.541 1.557-0.356l2.332 2.332z"></path>
</symbol>
<symbol id="icon-weights" viewBox="0 0 32 32">
<path d="M23 17h-13v3.494c0 0.835-0.672 1.506-1.5 1.506-0.834 0-1.5-0.674-1.5-1.506v-0.579c-0.156 0.055-0.325 0.085-0.5 0.085-0.834 0-1.5-0.672-1.5-1.502v-1.498h-2v-1h2v-1.498c0-0.831 0.672-1.502 1.5-1.502 0.176 0 0.344 0.030 0.5 0.085v0-0.578c0-0.835 0.672-1.506 1.5-1.506 0.834 0 1.5 0.674 1.5 1.506v3.494h13v-3.494c0-0.835 0.672-1.506 1.5-1.506 0.834 0 1.5 0.674 1.5 1.506v0.579c0.156-0.055 0.325-0.085 0.5-0.085 0.834 0 1.5 0.672 1.5 1.502v1.498h2v1h-2v1.498c0 0.831-0.672 1.502-1.5 1.502-0.176 0-0.344-0.030-0.5-0.085v0.578c0 0.835-0.672 1.506-1.5 1.506-0.834 0-1.5-0.674-1.5-1.506v-3.494zM26.5 14c-0.276 0-0.5 0.215-0.5 0.498v4.005c0 0.275 0.232 0.498 0.5 0.498 0.276 0 0.5-0.215 0.5-0.498v-4.005c0-0.275-0.232-0.498-0.5-0.498v0zM6.5 14c-0.276 0-0.5 0.215-0.5 0.498v4.005c0 0.275 0.232 0.498 0.5 0.498 0.276 0 0.5-0.215 0.5-0.498v-4.005c0-0.275-0.232-0.498-0.5-0.498v0zM24.5 12c-0.276 0-0.5 0.222-0.5 0.51v7.981c0 0.281 0.232 0.51 0.5 0.51 0.276 0 0.5-0.222 0.5-0.51v-7.981c0-0.281-0.232-0.51-0.5-0.51v0zM8.5 12c-0.276 0-0.5 0.222-0.5 0.51v7.981c0 0.281 0.232 0.51 0.5 0.51 0.276 0 0.5-0.222 0.5-0.51v-7.981c0-0.281-0.232-0.51-0.5-0.51v0z"></path>
</symbol>
<symbol id="icon-sunglasses" viewBox="0 0 32 32">
<path d="M18.010 14.967h10.976c0.030 0.355 0.008 0.709-0.023 1h-10.841c-0.086-0.313-0.147-0.665-0.112-1zM18.609 13.967c0.118-0.076 0.257-0.143 0.419-0.198 1.79-0.604 3.633-0.767 4.639-0.795s3.865-0.013 4.642 0.547c0.168 0.121 0.298 0.274 0.397 0.445h-10.097zM13.489 16.967c-0.103 0.286-0.277 0.647-0.494 1v0h-9.528c-0.108-0.3-0.203-0.66-0.272-1h10.294zM13.842 15.967h-10.798c-0.031-0.291-0.053-0.645-0.021-1h10.926c0.039 0.334-0.021 0.687-0.108 1zM12.187 18.967c-0.050 0.043-0.101 0.083-0.152 0.119-0.66 0.465-2.109 0.835-3.93 0.835-1.058 0-1.916-0.050-2.761-0.24-0.604-0.136-0.992-0.261-1.345-0.714h8.188zM13.305 13.967h-9.986c0.096-0.157 0.22-0.296 0.377-0.408 0.774-0.553 3.62-0.567 4.622-0.54s2.837 0.188 4.619 0.784c0.139 0.046 0.261 0.102 0.367 0.164zM28.546 17.967h-9.588c-0.214-0.354-0.385-0.715-0.486-1h10.342c-0.068 0.339-0.161 0.698-0.268 1zM28.030 18.967c-0.362 0.486-0.755 0.616-1.376 0.757-0.849 0.193-1.711 0.243-2.773 0.243-1.829 0-3.284-0.375-3.946-0.846-0.064-0.045-0.127-0.097-0.19-0.154h8.285zM15.059 12.975c-4.367-1.204-10.525-1.147-13.693-0.614-0.383 0.064-0.443 1.823-0.102 1.884 0.626 0.253 0.893 0.885 0.893 0.885s0.187 0.561 0.73 2.841c0.543 2.28 1.837 2.554 1.837 2.554s1.584 0.392 3.412 0.392c1.827 0 2.921-0.083 4.091-0.668s1.682-2.216 1.682-2.216c0 0 0.59-1.405 0.996-2.73 0.127-0.416 2.065-0.416 2.192 0 0.406 1.326 0.996 2.73 0.996 2.73s0.512 1.63 1.682 2.216c1.17 0.585 2.264 0.668 4.091 0.668s3.412-0.392 3.412-0.392c0 0 1.294-0.273 1.837-2.554s0.73-2.841 0.73-2.841c0 0 0.267-0.632 0.893-0.885 0.34-0.062 0.28-1.82-0.102-1.884-3.168-0.534-9.325-0.59-13.693 0.614-0.296 0.068-1.586 0.068-1.882 0v0z"></path>
</symbol>
<symbol id="icon-sunglasses1" viewBox="0 0 32 32">
<path d="M15.018 12.975c-4.367-1.204-10.525-1.147-13.693-0.614-0.383 0.064-0.443 1.823-0.102 1.884 0.626 0.253 0.893 0.885 0.893 0.885s0.187 0.561 0.73 2.841c0.543 2.28 1.837 2.554 1.837 2.554s1.584 0.392 3.412 0.392c1.827 0 2.921-0.083 4.091-0.668s1.682-2.216 1.682-2.216c0 0 0.59-1.405 0.996-2.73 0.127-0.416 2.065-0.416 2.192 0 0.406 1.326 0.996 2.73 0.996 2.73s0.512 1.63 1.682 2.216c1.17 0.585 2.264 0.668 4.091 0.668s3.412-0.392 3.412-0.392c0 0 1.294-0.273 1.837-2.554s0.73-2.841 0.73-2.841c0 0 0.267-0.632 0.893-0.885 0.34-0.062 0.28-1.82-0.102-1.884-3.168-0.534-9.325-0.59-13.693 0.614-0.296 0.068-1.586 0.068-1.882 0z"></path>
</symbol>
<symbol id="icon-content_cut" viewBox="0 0 24 24">
<path d="M18.984 3h3v0.984l-6.984 7.031-2.016-2.016zM12 12.516q0.516 0 0.516-0.516t-0.516-0.516-0.516 0.516 0.516 0.516zM6 20.016q0.797 0 1.406-0.586t0.609-1.43-0.609-1.43-1.406-0.586-1.406 0.586-0.609 1.43 0.609 1.43 1.406 0.586zM6 8.016q0.797 0 1.406-0.586t0.609-1.43-0.609-1.43-1.406-0.586-1.406 0.586-0.609 1.43 0.609 1.43 1.406 0.586zM9.656 7.641l12.328 12.375v0.984h-3l-6.984-6.984-2.344 2.344q0.328 0.703 0.328 1.641 0 1.641-1.172 2.813t-2.813 1.172-2.813-1.172-1.172-2.813 1.172-2.813 2.813-1.172q0.938 0 1.641 0.328l2.344-2.344-2.344-2.344q-0.703 0.328-1.641 0.328-1.641 0-2.813-1.172t-1.172-2.813 1.172-2.813 2.813-1.172 2.813 1.172 1.172 2.813q0 0.938-0.328 1.641z"></path>
</symbol>
<symbol id="icon-airplanemode_on" viewBox="0 0 24 24">
<path d="M21 15.984l-8.016-2.484v5.484l2.016 1.5v1.5l-3.516-0.984-3.469 0.984v-1.5l1.969-1.5v-5.484l-7.969 2.484v-1.969l7.969-5.016v-5.484q0-0.609 0.445-1.055t1.055-0.445 1.055 0.445 0.445 1.055v5.484l8.016 5.016v1.969z"></path>
</symbol>
<symbol id="icon-attach_file" viewBox="0 0 24 24">
<path d="M16.5 6h1.5v11.484q0 2.297-1.594 3.914t-3.891 1.617-3.914-1.617-1.617-3.914v-12.469q0-1.641 1.195-2.836t2.836-1.195 2.813 1.195 1.172 2.836v10.5q0 1.031-0.727 1.758t-1.758 0.727-1.781-0.727-0.75-1.758v-9.516h1.5v9.516q0 0.422 0.305 0.703t0.727 0.281 0.703-0.281 0.281-0.703v-10.5q0-1.031-0.727-1.781t-1.758-0.75-1.781 0.75-0.75 1.781v12.469q0 1.641 1.195 2.836t2.836 1.195 2.813-1.195 1.172-2.836v-11.484z"></path>
</symbol>
<symbol id="icon-desktop_windows" viewBox="0 0 24 24">
<path d="M21 15.984v-12h-18v12h18zM21 2.016q0.797 0 1.406 0.586t0.609 1.383v12q0 0.797-0.609 1.406t-1.406 0.609h-6.984v2.016h1.969v1.969h-7.969v-1.969h1.969v-2.016h-6.984q-0.797 0-1.406-0.609t-0.609-1.406v-12q0-0.797 0.609-1.383t1.406-0.586h18z"></path>
</symbol>
<symbol id="icon-phone_android" viewBox="0 0 24 24">
<path d="M17.25 18v-14.016h-10.5v14.016h10.5zM14.016 21v-0.984h-4.031v0.984h4.031zM15.984 0.984q1.219 0 2.109 0.891t0.891 2.109v16.031q0 1.219-0.891 2.109t-2.109 0.891h-7.969q-1.219 0-2.109-0.891t-0.891-2.109v-16.031q0-1.219 0.891-2.109t2.109-0.891h7.969z"></path>
</symbol>
<symbol id="icon-event_seat" viewBox="0 0 24 24">
<path d="M17.016 12.984h-10.031v-7.969q0-0.797 0.609-1.406t1.406-0.609h6q0.797 0 1.406 0.609t0.609 1.406v7.969zM2.016 9.984h3v3h-3v-3zM18.984 9.984h3v3h-3v-3zM3.984 21v-6h16.031v6h-3v-3h-10.031v3h-3z"></path>
</symbol>
<symbol id="icon-accessible" viewBox="0 0 24 24">
<path d="M12.844 18h2.063q-0.328 1.641-1.781 2.813t-3.141 1.172q-2.063 0-3.516-1.453t-1.453-3.516q0-1.688 1.172-3.141t2.813-1.781v2.063q-0.891 0.328-1.453 1.102t-0.563 1.758q0 1.219 0.891 2.109t2.109 0.891q0.984 0 1.758-0.563t1.102-1.453zM9.984 9.094q0-1.125 0.984-1.781t2.016-0.047h0.047v0.047q0.328 0.141 0.609 0.422l1.313 1.453q1.688 1.828 4.031 1.828v1.969q-2.625 0-4.969-1.922v3.422h3q0.797 0 1.383 0.609t0.586 1.406v5.484h-1.969v-4.969h-5.016q-0.797 0-1.406-0.609t-0.609-1.406v-5.906zM9.984 3.984q0-0.844 0.586-1.406t1.43-0.563 1.43 0.563 0.586 1.406-0.586 1.43-1.43 0.586-1.43-0.586-0.586-1.43z"></path>
</symbol>
<symbol id="icon-home_filled" viewBox="0 0 24 24">
<path d="M12 3l8.016 6v12h-5.016v-6.984h-6v6.984h-5.016v-12z"></path>
</symbol>
<symbol id="icon-imagesearch_roller" viewBox="0 0 24 24">
<path d="M20.016 2.016v6h-14.016v-2.016h-2.016v3.984h10.031v5.016h1.969v8.016h-6v-8.016h2.016v-3h-9.984v-8.016h3.984v-1.969h14.016z"></path>
</symbol>
<symbol id="icon-toggle_off" viewBox="0 0 24 24">
<path d="M6.984 15q1.219 0 2.109-0.891t0.891-2.109-0.891-2.109-2.109-0.891-2.109 0.891-0.891 2.109 0.891 2.109 2.109 0.891zM17.016 6.984q2.063 0 3.516 1.477t1.453 3.539-1.453 3.539-3.516 1.477h-10.031q-2.063 0-3.516-1.477t-1.453-3.539 1.453-3.539 3.516-1.477h10.031z"></path>
</symbol>
<symbol id="icon-toggle_on" viewBox="0 0 24 24">
<path d="M17.016 15q1.219 0 2.109-0.891t0.891-2.109-0.891-2.109-2.109-0.891-2.109 0.891-0.891 2.109 0.891 2.109 2.109 0.891zM17.016 6.984q2.063 0 3.516 1.477t1.453 3.539-1.453 3.539-3.516 1.477h-10.031q-2.063 0-3.516-1.477t-1.453-3.539 1.453-3.539 3.516-1.477h10.031z"></path>
</symbol>
<symbol id="icon-sports_esports" viewBox="0 0 24 24">
<path d="M17.016 12.984q0.422 0 0.703-0.281t0.281-0.703-0.281-0.703-0.703-0.281-0.727 0.281-0.305 0.703 0.305 0.703 0.727 0.281zM15 9.984q0.422 0 0.703-0.281t0.281-0.703-0.281-0.703-0.703-0.281-0.703 0.281-0.281 0.703 0.281 0.703 0.703 0.281zM11.016 11.016v-1.031h-2.016v-1.969h-0.984v1.969h-2.016v1.031h2.016v1.969h0.984v-1.969h2.016zM21.563 16.078q0.188 1.172-0.586 2.039t-1.945 0.867q-1.031 0-1.781-0.75l-2.25-2.25h-6l-2.25 2.25q-0.75 0.75-1.828 0.75t-1.805-0.727-0.727-1.805q0-0.047 0.023-0.188t0.023-0.188l1.078-7.641q0.188-1.453 1.313-2.438t2.625-0.984h9.094q1.453 0 2.578 1.008t1.359 2.414z"></path>
</symbol>
<symbol id="icon-hardware" viewBox="0 0 24 24">
<path d="M9 12.984h6v7.031q0 0.422-0.281 0.703t-0.703 0.281h-4.031q-0.422 0-0.703-0.281t-0.281-0.703v-7.031zM18 3h2.016v8.016h-2.016l-3-3v3h-6v-3h-5.016q0-2.063 1.477-3.539t3.539-1.477h6v3z"></path>
</symbol>
<symbol id="icon-lunch_dining" viewBox="0 0 24 24">
<path d="M2.016 15.984h19.969v2.016q0 0.797-0.586 1.406t-1.383 0.609h-16.031q-0.797 0-1.383-0.609t-0.586-1.406v-2.016zM5.344 13.5q-0.516 0-1.125 0.375-1.031 0.609-2.203 0.609v-1.969q0.516 0 1.125-0.375 1.078-0.656 2.203-0.656 1.078 0 2.156 0.656 0.609 0.375 1.172 0.375 0.516 0 1.125-0.375 1.078-0.656 2.203-0.656 1.078 0 2.156 0.656 0.609 0.375 1.172 0.375 0.516 0 1.125-0.375 1.078-0.656 2.203-0.656 1.078 0 2.156 0.656l1.172 0.375v1.969q-1.125 0-2.156-0.609-0.609-0.375-1.172-0.375-0.516 0-1.125 0.375-1.031 0.609-2.203 0.609-1.125 0-2.156-0.609-0.609-0.375-1.172-0.375-0.516 0-1.125 0.375-1.031 0.609-2.203 0.609-1.125 0-2.156-0.609-0.609-0.375-1.172-0.375zM21.984 9.984h-19.969q-0.234-2.438 2.719-4.219t7.266-1.781 7.266 1.781 2.719 4.219z"></path>
</symbol>
<symbol id="icon-park" viewBox="0 0 24 24">
<path d="M17.016 12l3.984 6h-7.031v3.984h-3.938v-3.984h-6.938l3.891-6h-1.922l6.938-9.984 6.984 9.984h-1.969z"></path>
</symbol>
<symbol id="icon-child_friendly" viewBox="0 0 24 24">
<path d="M17.016 20.016q0.609 0 1.055-0.445t0.445-1.055-0.445-1.055-1.055-0.445-1.055 0.445-0.445 1.055 0.445 1.055 1.055 0.445zM8.016 20.016q0.609 0 1.055-0.445t0.445-1.055-0.445-1.055-1.055-0.445-1.055 0.445-0.445 1.055 0.445 1.055 1.055 0.445zM19.313 15.891q1.172 1.078 1.172 2.625 0 1.453-1.008 2.461t-2.461 1.008q-1.313 0-2.297-0.867t-1.172-2.133h-2.109q-0.188 1.266-1.148 2.133t-2.273 0.867q-1.453 0-2.484-1.008t-1.031-2.461q0-2.063 1.828-3.094l-2.109-4.406h-2.203v-2.016h3.469l0.938 2.016h14.578q0 1.125-0.492 2.555t-1.195 2.32zM12.984 2.016q3.328 0 5.672 2.344t2.344 5.625h-8.016v-7.969z"></path>
</symbol>
<symbol id="icon-fitness_center" viewBox="0 0 24 24">
<path d="M20.578 14.859l1.406 1.453-2.109 2.109 1.406 1.453-1.406 1.406-1.453-1.406-2.109 2.109-1.453-1.406-1.406 1.406-1.453-1.406 3.563-3.563-8.578-8.578-3.563 3.563-1.406-1.453 1.406-1.406-1.406-1.453 2.109-2.109-1.406-1.453 1.406-1.406 1.453 1.406 2.109-2.109 1.453 1.406 1.406-1.406 1.453 1.406-3.563 3.563 8.578 8.578 3.563-3.563 1.406 1.453z"></path>
</symbol>
<symbol id="icon-handyman" viewBox="0 0 24 24">
<path d="M21.656 18.188l-5.297-5.297h-0.984l-2.531 2.531v0.984l5.297 5.297q0.281 0.281 0.703 0.281t0.703-0.281l2.109-2.109q0.328-0.281 0.328-0.703t-0.328-0.703zM17.344 10.172l1.406-1.406 2.109 2.156q0.609-0.609 0.797-1.383t0-1.523-0.797-1.359l-3.516-3.516-1.406 1.406v-2.859l-0.703-0.703-3.563 3.563 0.703 0.703h2.859l-1.406 1.406 1.031 1.078-2.859 2.859-4.172-4.125v-1.406l-3-3-2.813 2.813 3 3.047h1.406l4.125 4.125-0.844 0.844h-2.109l-5.297 5.297q-0.281 0.281-0.281 0.703t0.281 0.703l2.109 2.109q0.328 0.281 0.727 0.281t0.68-0.281l5.297-5.297v-2.109l5.156-5.156z"></path>
</symbol>
<symbol id="icon-monitor2" viewBox="0 0 24 24">
<path d="M20.016 3h-16.031q-0.797 0-1.383 0.586t-0.586 1.43v10.969q0 0.844 0.586 1.43t1.383 0.586h3l-0.984 0.984v2.016h12v-2.016l-0.984-0.984h3q0.797 0 1.383-0.586t0.586-1.43v-10.969q0-0.844-0.586-1.43t-1.383-0.586zM20.016 15.984h-16.031v-10.969h16.031v10.969z"></path>
</symbol>
<symbol id="icon-power-off" viewBox="0 0 24 28">
<path d="M24 14c0 6.609-5.391 12-12 12s-12-5.391-12-12c0-3.797 1.75-7.297 4.797-9.578 0.891-0.672 2.141-0.5 2.797 0.391 0.672 0.875 0.484 2.141-0.391 2.797-2.031 1.531-3.203 3.859-3.203 6.391 0 4.406 3.594 8 8 8s8-3.594 8-8c0-2.531-1.172-4.859-3.203-6.391-0.875-0.656-1.062-1.922-0.391-2.797 0.656-0.891 1.922-1.062 2.797-0.391 3.047 2.281 4.797 5.781 4.797 9.578zM14 2v10c0 1.094-0.906 2-2 2s-2-0.906-2-2v-10c0-1.094 0.906-2 2-2s2 0.906 2 2z"></path>
</symbol>
<symbol id="icon-briefcase" viewBox="0 0 28 28">
<path d="M10 4h8v-2h-8v2zM28 14v7.5c0 1.375-1.125 2.5-2.5 2.5h-23c-1.375 0-2.5-1.125-2.5-2.5v-7.5h10.5v2.5c0 0.547 0.453 1 1 1h5c0.547 0 1-0.453 1-1v-2.5h10.5zM16 14v2h-4v-2h4zM28 6.5v6h-28v-6c0-1.375 1.125-2.5 2.5-2.5h5.5v-2.5c0-0.828 0.672-1.5 1.5-1.5h9c0.828 0 1.5 0.672 1.5 1.5v2.5h5.5c1.375 0 2.5 1.125 2.5 2.5z"></path>
</symbol>
<symbol id="icon-cut" viewBox="0 0 28 28">
<path d="M15 14c0.547 0 1 0.453 1 1s-0.453 1-1 1-1-0.453-1-1 0.453-1 1-1zM19.688 15l7.922 6.219c0.281 0.203 0.422 0.547 0.391 0.875-0.047 0.344-0.25 0.641-0.547 0.797l-2 1c-0.141 0.078-0.297 0.109-0.453 0.109-0.172 0-0.344-0.047-0.484-0.125l-10.781-6.047-1.719 1.031c-0.063 0.031-0.125 0.063-0.187 0.078 0.141 0.484 0.203 1 0.156 1.516-0.141 1.609-1.219 3.141-2.938 4.234-1.328 0.844-2.859 1.313-4.328 1.313-1.406 0-2.594-0.422-3.469-1.219-0.891-0.828-1.344-2.016-1.234-3.234 0.141-1.594 1.219-3.141 2.922-4.234 1.328-0.844 2.875-1.313 4.344-1.313 0.875 0 1.672 0.172 2.359 0.484 0.094-0.141 0.203-0.25 0.344-0.344l1.906-1.141-1.906-1.141c-0.141-0.094-0.25-0.203-0.344-0.344-0.688 0.313-1.484 0.484-2.359 0.484-1.469 0-3.016-0.469-4.344-1.313-1.703-1.094-2.781-2.641-2.922-4.234-0.109-1.219 0.344-2.406 1.234-3.219 0.875-0.812 2.063-1.234 3.469-1.234 1.469 0 3 0.469 4.328 1.313 1.719 1.078 2.797 2.625 2.938 4.234 0.047 0.516-0.016 1.031-0.156 1.516 0.063 0.016 0.125 0.047 0.187 0.078l1.719 1.031 10.781-6.047c0.141-0.078 0.313-0.125 0.484-0.125 0.156 0 0.313 0.031 0.453 0.109l2 1c0.297 0.156 0.5 0.453 0.547 0.797 0.031 0.328-0.109 0.672-0.391 0.875zM9.047 10.938c0.953-0.875 0.359-2.453-1.328-3.516-0.953-0.609-2.063-0.922-3-0.922-0.719 0-1.359 0.187-1.766 0.562-0.953 0.875-0.359 2.453 1.328 3.516 0.953 0.609 2.047 0.922 3 0.922 0.719 0 1.359-0.187 1.766-0.562zM7.719 22.578c1.687-1.062 2.281-2.641 1.328-3.516-0.406-0.375-1.047-0.562-1.766-0.562-0.953 0-2.047 0.313-3 0.922-1.687 1.062-2.281 2.641-1.328 3.516 0.406 0.375 1.047 0.562 1.766 0.562 0.938 0 2.047-0.313 3-0.922zM10.5 13l1.5 0.906v-0.172c0-0.359 0.203-0.688 0.516-0.875l0.219-0.125-1.234-0.734-0.406 0.406c-0.125 0.125-0.219 0.25-0.344 0.359-0.047 0.047-0.078 0.063-0.109 0.094zM14 16.5l1.5 0.5 11.5-9-2-1-12 6.734v1.766l-2.5 1.5 0.141 0.125c0.031 0.047 0.063 0.063 0.109 0.094 0.125 0.125 0.219 0.25 0.344 0.375l0.406 0.406zM25 23l2-1-8.125-6.375-2.766 2.156c-0.047 0.063-0.125 0.078-0.203 0.109z"></path>
</symbol>
<symbol id="icon-paperclip" viewBox="0 0 22 28">
<path d="M21.938 21.641c0 2.438-1.859 4.297-4.297 4.297-1.375 0-2.703-0.594-3.672-1.563l-12.141-12.125c-1.109-1.125-1.766-2.656-1.766-4.234 0-3.313 2.609-5.953 5.922-5.953 1.594 0 3.125 0.641 4.266 1.766l9.453 9.469c0.094 0.094 0.156 0.219 0.156 0.344 0 0.328-0.875 1.203-1.203 1.203-0.141 0-0.266-0.063-0.359-0.156l-9.469-9.484c-0.75-0.734-1.766-1.203-2.828-1.203-2.219 0-3.938 1.797-3.938 4 0 1.062 0.438 2.078 1.188 2.828l12.125 12.141c0.594 0.594 1.422 0.984 2.266 0.984 1.328 0 2.312-0.984 2.312-2.312 0-0.859-0.391-1.672-0.984-2.266l-9.078-9.078c-0.25-0.234-0.594-0.375-0.938-0.375-0.594 0-1.047 0.438-1.047 1.047 0 0.344 0.156 0.672 0.391 0.922l6.406 6.406c0.094 0.094 0.156 0.219 0.156 0.344 0 0.328-0.891 1.219-1.219 1.219-0.125 0-0.25-0.063-0.344-0.156l-6.406-6.406c-0.625-0.609-0.984-1.469-0.984-2.328 0-1.719 1.344-3.062 3.063-3.062 0.875 0 1.719 0.359 2.328 0.984l9.078 9.078c0.984 0.969 1.563 2.297 1.563 3.672z"></path>
</symbol>
<symbol id="icon-suitcase1" viewBox="0 0 28 28">
<path d="M10 6h8v-2h-8v2zM4.5 6v20h-1c-1.922 0-3.5-1.578-3.5-3.5v-13c0-1.922 1.578-3.5 3.5-3.5h1zM22 6v20h-16v-20h2v-2.5c0-0.828 0.672-1.5 1.5-1.5h9c0.828 0 1.5 0.672 1.5 1.5v2.5h2zM28 9.5v13c0 1.922-1.578 3.5-3.5 3.5h-1v-20h1c1.922 0 3.5 1.578 3.5 3.5z"></path>
</symbol>
<symbol id="icon-coffee2" viewBox="0 0 29 28">
<path d="M26 10c0-1.656-1.344-3-3-3h-1v6h1c1.656 0 3-1.344 3-3zM0 22h28c0 2.203-1.797 4-4 4h-20c-2.203 0-4-1.797-4-4zM29 10c0 3.313-2.688 6-6 6h-1v0.5c0 1.922-1.578 3.5-3.5 3.5h-11c-1.922 0-3.5-1.578-3.5-3.5v-11.5c0-0.547 0.453-1 1-1h18c3.313 0 6 2.688 6 6z"></path>
</symbol>
<symbol id="icon-cutlery" viewBox="0 0 22 28">
<path d="M10 1v10c0 1.266-0.812 2.406-2 2.828v12.172c0 1.094-0.906 2-2 2h-2c-1.094 0-2-0.906-2-2v-12.172c-1.188-0.422-2-1.563-2-2.828v-10c0-0.547 0.453-1 1-1s1 0.453 1 1v6.5c0 0.547 0.453 1 1 1s1-0.453 1-1v-6.5c0-0.547 0.453-1 1-1s1 0.453 1 1v6.5c0 0.547 0.453 1 1 1s1-0.453 1-1v-6.5c0-0.547 0.453-1 1-1s1 0.453 1 1zM22 1v25c0 1.094-0.906 2-2 2h-2c-1.094 0-2-0.906-2-2v-8h-3.5c-0.266 0-0.5-0.234-0.5-0.5v-12.5c0-2.75 2.25-5 5-5h4c0.547 0 1 0.453 1 1z"></path>
</symbol>
<symbol id="icon-desktop" viewBox="0 0 30 28">
<path d="M28 15.5v-13c0-0.266-0.234-0.5-0.5-0.5h-25c-0.266 0-0.5 0.234-0.5 0.5v13c0 0.266 0.234 0.5 0.5 0.5h25c0.266 0 0.5-0.234 0.5-0.5zM30 2.5v17c0 1.375-1.125 2.5-2.5 2.5h-8.5c0 1.328 1 2.453 1 3s-0.453 1-1 1h-8c-0.547 0-1-0.453-1-1 0-0.578 1-1.641 1-3h-8.5c-1.375 0-2.5-1.125-2.5-2.5v-17c0-1.375 1.125-2.5 2.5-2.5h25c1.375 0 2.5 1.125 2.5 2.5z"></path>
</symbol>
<symbol id="icon-mobile1" viewBox="0 0 12 28">
<path d="M7.25 22c0-0.688-0.562-1.25-1.25-1.25s-1.25 0.562-1.25 1.25 0.562 1.25 1.25 1.25 1.25-0.562 1.25-1.25zM10.5 19.5v-11c0-0.266-0.234-0.5-0.5-0.5h-8c-0.266 0-0.5 0.234-0.5 0.5v11c0 0.266 0.234 0.5 0.5 0.5h8c0.266 0 0.5-0.234 0.5-0.5zM7.5 6.25c0-0.141-0.109-0.25-0.25-0.25h-2.5c-0.141 0-0.25 0.109-0.25 0.25s0.109 0.25 0.25 0.25h2.5c0.141 0 0.25-0.109 0.25-0.25zM12 6v16c0 1.094-0.906 2-2 2h-8c-1.094 0-2-0.906-2-2v-16c0-1.094 0.906-2 2-2h8c1.094 0 2 0.906 2 2z"></path>
</symbol>
<symbol id="icon-futbol-o" viewBox="0 0 28 28">
<path d="M9.516 12.75l4.484-3.25 4.484 3.25-1.703 5.25h-5.547zM14 0c7.734 0 14 6.266 14 14s-6.266 14-14 14-14-6.266-14-14 6.266-14 14-14zM23.672 21.094c1.469-2 2.328-4.438 2.328-7.094v-0.047l-1.594 1.391-3.75-3.5 0.984-5.047 2.094 0.187c-1.484-2.047-3.609-3.625-6.078-4.406l0.828 1.937-4.484 2.484-4.484-2.484 0.828-1.937c-2.469 0.781-4.594 2.359-6.078 4.406l2.109-0.187 0.969 5.047-3.75 3.5-1.594-1.391v0.047c0 2.656 0.859 5.094 2.328 7.094l0.469-2.063 5.094 0.625 2.172 4.656-1.813 1.078c1.172 0.391 2.438 0.609 3.75 0.609s2.578-0.219 3.75-0.609l-1.813-1.078 2.172-4.656 5.094-0.625z"></path>
</symbol>
<symbol id="icon-plug" viewBox="0 0 28 28">
<path d="M27.422 7.078c0.766 0.781 0.766 2.047 0 2.828l-6.266 6.25 2.344 2.344-2.5 2.5c-3.422 3.422-8.641 3.906-12.516 1.344l-5.656 5.656h-2.828v-2.828l5.656-5.656c-2.562-3.875-2.078-9.094 1.344-12.516l2.5-2.5 2.344 2.344 6.25-6.266c0.781-0.766 2.047-0.766 2.828 0 0.781 0.781 0.781 2.063 0 2.828l-6.25 6.266 3.656 3.656 6.266-6.25c0.781-0.781 2.047-0.781 2.828 0z"></path>
</symbol>
<symbol id="icon-cog" viewBox="0 0 20 20">
<path d="M16.783 10c0-1.049 0.646-1.875 1.617-2.443-0.176-0.584-0.407-1.145-0.692-1.672-1.089 0.285-1.97-0.141-2.711-0.883-0.741-0.74-0.968-1.621-0.683-2.711-0.527-0.285-1.088-0.518-1.672-0.691-0.568 0.97-1.595 1.615-2.642 1.615-1.048 0-2.074-0.645-2.643-1.615-0.585 0.173-1.144 0.406-1.671 0.691 0.285 1.090 0.059 1.971-0.684 2.711-0.74 0.742-1.621 1.168-2.711 0.883-0.285 0.527-0.517 1.088-0.691 1.672 0.97 0.568 1.615 1.394 1.615 2.443 0 1.047-0.645 2.074-1.615 2.643 0.175 0.584 0.406 1.144 0.691 1.672 1.090-0.285 1.971-0.059 2.711 0.682s0.969 1.623 0.684 2.711c0.527 0.285 1.087 0.518 1.672 0.693 0.568-0.973 1.595-1.617 2.643-1.617 1.047 0 2.074 0.645 2.643 1.617 0.584-0.176 1.144-0.408 1.672-0.693-0.285-1.088-0.059-1.969 0.683-2.711 0.741-0.74 1.622-1.166 2.711-0.883 0.285-0.527 0.517-1.086 0.692-1.672-0.973-0.569-1.619-1.395-1.619-2.442zM10 13.652c-2.018 0-3.653-1.635-3.653-3.652 0-2.018 1.636-3.654 3.653-3.654s3.652 1.637 3.652 3.654c0 2.018-1.634 3.652-3.652 3.652z"></path>
</symbol>
<symbol id="icon-home4" viewBox="0 0 20 20">
<path d="M18.672 11h-1.672v6c0 0.445-0.194 1-1 1h-4v-6h-4v6h-4c-0.806 0-1-0.555-1-1v-6h-1.672c-0.598 0-0.47-0.324-0.060-0.748l8.024-8.032c0.195-0.202 0.451-0.302 0.708-0.312 0.257 0.010 0.513 0.109 0.708 0.312l8.023 8.031c0.411 0.425 0.539 0.749-0.059 0.749z"></path>
</symbol>
<symbol id="icon-scissors2" viewBox="0 0 20 20">
<path d="M8.38 5.59c0-2.038-1.652-3.69-3.69-3.69s-3.69 1.652-3.69 3.69c0 2.038 1.652 3.69 3.69 3.69 0.96 0 1.826-0.376 2.483-0.976l1.827 1.687 0.012 0.009-0.004 0.003-1.836 1.693c-0.656-0.6-1.522-0.976-2.482-0.976-2.038 0-3.69 1.652-3.69 3.69s1.652 3.69 3.69 3.69 3.69-1.652 3.69-3.69c0-0.297-0.044-0.582-0.111-0.858l2.844-1.991 4.127 3.065c2.212 1.549 3.76-0.663 3.76-0.663l-10.731-7.515c0.066-0.276 0.111-0.561 0.111-0.858zM4.69 7.39c-0.994 0-1.8-0.806-1.8-1.8s0.806-1.8 1.8-1.8 1.8 0.806 1.8 1.8-0.806 1.8-1.8 1.8zM4.69 16.21c-0.994 0-1.8-0.806-1.8-1.8s0.806-1.8 1.8-1.8 1.8 0.806 1.8 1.8-0.806 1.8-1.8 1.8zM19 6.038c0 0-1.548-2.212-3.76-0.663l-3.205 2.235 2.354 1.648 4.611-3.22z"></path>
</symbol>
<symbol id="icon-album" viewBox="0 0 20 20">
<path d="M0 0h20v20h-20v-20zM10 18c4.418 0 8-3.582 8-8s-3.582-8-8-8v0c-4.418 0-8 3.582-8 8s3.582 8 8 8v0zM10 13c-1.657 0-3-1.343-3-3s1.343-3 3-3v0c1.657 0 3 1.343 3 3s-1.343 3-3 3v0z"></path>
</symbol>
<symbol id="icon-apparel" viewBox="0 0 20 20">
<path d="M7 0h-1l-6 3v6l4-1v12h12v-12l4 1v-6l-6-3h-1c0 1.657-1.343 3-3 3s-3-1.343-3-3v0z"></path>
</symbol>
<symbol id="icon-at-symbol" viewBox="0 0 20 20">
<path d="M13.6 13.47c-0.91 0.953-2.191 1.545-3.61 1.545-2.756 0-4.99-2.234-4.99-4.99 0-0.009 0-0.018 0-0.026v0.001c0-2.761 2.239-5 5-5 1.131 0 2.175 0.376 3.013 1.009l-0.013-0.009v-1h2v6.5c0 0.828 0.672 1.5 1.5 1.5s1.5-0.672 1.5-1.5v0-1.5c-0.003-4.416-3.584-7.994-8-7.994-4.418 0-8 3.582-8 8s3.582 8 8 8c1.305 0 2.537-0.312 3.625-0.867l-0.045 0.021 0.9 1.79c-1.305 0.668-2.847 1.060-4.48 1.060-5.523 0-10-4.477-10-10s4.477-10 10-10c5.519 0 9.994 4.472 10 9.99v0.001h-0.010v1.5c0 0.003 0 0.007 0 0.010 0 1.933-1.567 3.5-3.5 3.5-1.202 0-2.262-0.606-2.892-1.528l-0.008-0.012zM10 13c1.657 0 3-1.343 3-3s-1.343-3-3-3v0c-1.657 0-3 1.343-3 3s1.343 3 3 3v0z"></path>
</symbol>
<symbol id="icon-attachment" viewBox="0 0 20 20">
<path d="M15 3h-8c-3.866 0-7 3.134-7 7s3.134 7 7 7v0h8v-2h-8c-2.761 0-5-2.239-5-5s2.239-5 5-5v0h8c1.657 0 3 1.343 3 3s-1.343 3-3 3v0h-8c-0.552 0-1-0.448-1-1s0.448-1 1-1v0h8v-2h-8c-1.657 0-3 1.343-3 3s1.343 3 3 3v0h8c2.761 0 5-2.239 5-5s-2.239-5-5-5v0z"></path>
</symbol>
<symbol id="icon-edit-cut" viewBox="0 0 20 20">
<path d="M9.77 11.5l5.34 3.91c0.44 0.33 1.24 0.59 1.79 0.59h3.1l-13.11-9.62c0.072-0.265 0.114-0.57 0.114-0.885 0-1.933-1.567-3.5-3.5-3.5s-3.5 1.567-3.5 3.5c0 1.933 1.567 3.5 3.5 3.5 0.747 0 1.439-0.234 2.008-0.633l-0.011 0.007 2.23 1.63-2.23 1.63c-0.56-0.396-1.256-0.634-2.009-0.634-1.933 0-3.5 1.567-3.5 3.5s1.567 3.5 3.5 3.5c1.933 0 3.5-1.567 3.5-3.5 0-0.311-0.041-0.613-0.117-0.901l0.006 0.024 2.9-2.12zM3.5 7c-0.828 0-1.5-0.672-1.5-1.5s0.672-1.5 1.5-1.5v0c0.828 0 1.5 0.672 1.5 1.5s-0.672 1.5-1.5 1.5v0zM3.5 16c-0.828 0-1.5-0.672-1.5-1.5s0.672-1.5 1.5-1.5v0c0.828 0 1.5 0.672 1.5 1.5s-0.672 1.5-1.5 1.5v0zM15.1 4.59c0.507-0.343 1.126-0.559 1.792-0.59l0.008-0h3.1l-7.5 5.5-2.050-1.5 4.65-3.41z"></path>
</symbol>
<symbol id="icon-flashlight" viewBox="0 0 20 20">
<path d="M13 7v11c0 1.105-0.895 2-2 2v0h-2c-1.105 0-2-0.895-2-2v0-11l-2-2v-2h10v2l-2 2zM9 8v1c0 0.552 0.448 1 1 1s1-0.448 1-1v0-1c0-0.552-0.448-1-1-1s-1 0.448-1 1v0zM5 0h10v2h-10v-2z"></path>
</symbol>
<symbol id="icon-location-park" viewBox="0 0 20 20">
<path d="M5.33 12.77c-0.41 0.155-0.884 0.245-1.38 0.245-2.209 0-4-1.791-4-4 0-1.872 1.286-3.443 3.022-3.88l0.028-0.006v-0.13c0-0.001 0-0.003 0-0.004 0-2.209 1.791-4 4-4 0.621 0 1.209 0.142 1.734 0.394l-0.024-0.010c0.646-0.846 1.655-1.386 2.79-1.386 1.773 0 3.238 1.318 3.468 3.028l0.002 0.018c1.038 0.205 1.836 1.030 1.998 2.066l0.002 0.014c1.748 0.454 3.017 2.017 3.017 3.877 0 2.209-1.791 4-4 4-0.624 0-1.215-0.143-1.741-0.398l0.024 0.010c-0.541 0.869-1.317 1.548-2.238 1.957l-0.032 0.013v3.42l2 1v1h-8v-1l2-1v-3l-2.67-2.23zM5 10l3 3v-3h-3z"></path>
</symbol>
<symbol id="icon-watch" viewBox="0 0 20 20">
<path d="M11 9h2v2h-4v-4h2v2zM5.18 15.080c-1.352-1.276-2.193-3.080-2.193-5.080s0.841-3.804 2.19-5.077l0.003-0.003 0.82-4.92h8l0.82 4.92c1.352 1.276 2.193 3.080 2.193 5.080s-0.841 3.804-2.19 5.077l-0.003 0.003-0.82 4.92h-8l-0.82-4.92zM10 15c2.761 0 5-2.239 5-5s-2.239-5-5-5v0c-2.761 0-5 2.239-5 5s2.239 5 5 5v0z"></path>
</symbol>
<symbol id="icon-switch" viewBox="0 0 32 32">
<path d="M30 16c0 7.732-6.268 14-14 14s-14-6.268-14-14c0-3.408 1.226-6.523 3.25-8.95 0.154-0.284 0.368-0.531 0.635-0.71 0.045-0.047 0.085-0.1 0.131-0.146 0.001 0.023 0.011 0.045 0.013 0.068 0.289-0.162 0.617-0.262 0.971-0.262 1.104 0 2 0.896 2 2 0 0.696-0.355 1.308-0.895 1.666 0.035 0.026 0.060 0.058 0.096 0.084-1.375 1.712-2.201 3.883-2.201 6.25 0 5.523 4.477 10 10 10s10-4.477 10-10c0-2.367-0.826-4.538-2.201-6.25 0.036-0.026 0.062-0.058 0.096-0.084-0.54-0.358-0.895-0.97-0.895-1.666 0-1.104 0.896-2 2-2 0.354 0 0.682 0.1 0.971 0.262 0.002-0.023 0.012-0.045 0.014-0.068 0.045 0.046 0.085 0.099 0.131 0.146 0.267 0.179 0.48 0.426 0.635 0.71 2.022 2.427 3.249 5.542 3.249 8.95zM17 18h-2c-0.553 0-1-0.447-1-1v-14c0-0.552 0.447-1 1-1h2c0.553 0 1 0.448 1 1v14c0 0.553-0.447 1-1 1z"></path>
</symbol>
<symbol id="icon-star" viewBox="0 0 32 32">
<path d="M22.626 19.941l-0.010-0.006-0.066 0.053 0.094 0.014c0 0 4.052 10.204 3.203 11.683-1.669 1.265-8.842-5.595-9.774-6.501l0.006 0.035c0 0-8.059 8.048-9.925 6.609-1.118-0.812 2.947-12.030 2.947-12.030l0.019-0.003c-1.493-0.853-9.693-6.646-9.087-8.731 0.018-1.255 11.414-1.168 11.777-1.119 0.044-0.255 1.997-9.945 4.191-9.945 2.205 0 4.1 9.918 4.123 10.056h0.006l0.002 0.010 0.025-0.053c0 0 11.793-0.181 11.811 1.051 0.668 2.293-9.342 8.877-9.342 8.877z"></path>
</symbol>
<symbol id="icon-search" viewBox="0 0 32 32">
<path d="M31.715 28.953c0.381 0.381 0.381 0.999 0 1.381l-1.381 1.381c-0.382 0.381-1 0.381-1.381 0l-9.668-9.668c-0.105-0.105-0.175-0.229-0.222-0.361-1.983 1.449-4.418 2.314-7.063 2.314-6.627 0-12-5.373-12-12s5.373-12 12-12c6.627 0 12 5.373 12 12 0 2.645-0.865 5.080-2.314 7.063 0.132 0.047 0.256 0.116 0.361 0.222l9.668 9.668zM12 4c-4.418 0-8 3.582-8 8s3.582 8 8 8 8-3.582 8-8c0-4.418-3.582-8-8-8z"></path>
</symbol>
<symbol id="icon-home" viewBox="0 0 32 32">
<path d="M28.831 19.019l-2.84-2.841v14.822c0 0.553-0.446 1-0.999 1h-3.996c-0.553 0-0.999-0.447-0.999-1v-11.994c0-0.553-0.447-1-1-1h-5.995c-0.552 0-0.999 0.447-0.999 1v11.994c0 0.553-0.448 1-0.999 1h-3.996c-0.552 0-1-0.447-1-1v-14.822l-2.84 2.841-3.168-3.17 15.842-15.849 0.158 0.158 0.158-0.158 7.835 7.839v-5.826h3.997v9.825l4.010 4.011-3.169 3.17z"></path>
</symbol>
<symbol id="icon-monitor" viewBox="0 0 32 32">
<path d="M30 24c0 0-8.25 0-10 0s2 6 2 6c0 1.104-0.896 2-2 2h-8c-1.104 0-2-0.896-2-2 0 0 3.812-6 2-6s-10 0-10 0c-1.104 0-2-0.896-2-2v-20c0-1.104 0.896-2 2-2h28c1.104 0 2 0.896 2 2v20c0 1.104-0.896 2-2 2zM16 23c1.104 0 2-0.896 2-2s-0.896-2-2-2-2 0.896-2 2 0.896 2 2 2zM30 4c0-1.104-0.896-2-2-2h-24c-1.104 0-2 0.896-2 2v12c0 1.104 0.896 2 2 2h24c1.104 0 2-0.896 2-2v-12z"></path>
</symbol>
<symbol id="icon-mobile" viewBox="0 0 32 32">
<path d="M22 0h-12c-2.209 0-4 1.791-4 4v24c0 2.209 1.791 4 4 4h12c2.209 0 4-1.791 4-4v-24c0-2.209-1.791-4-4-4zM16.5 3h3c0.275 0 0.5 0.224 0.5 0.5s-0.225 0.5-0.5 0.5h-3c-0.276 0-0.5-0.224-0.5-0.5s0.224-0.5 0.5-0.5zM13 2c0.552 0 1 0.448 1 1s-0.448 1-1 1-1-0.448-1-1 0.448-1 1-1zM18 29c0 0.553-0.447 1-1 1h-2c-0.552 0-1-0.447-1-1v-2c0-0.553 0.448-1 1-1h2c0.553 0 1 0.447 1 1v2zM24 23c0 0.553-0.447 1-1 1h-14c-0.552 0-1-0.447-1-1v-16c0-0.552 0.448-1 1-1h14c0.553 0 1 0.448 1 1v16z"></path>
</symbol>
<symbol id="icon-trophy" viewBox="0 0 32 32">
<path d="M24.5 0h-17c-4.143 0-7.5 3.357-7.5 7.5s3.357 7.5 7.5 7.5h1.364c1.596 1.626 3.74 2.71 6.136 2.948v10.052h-3l-4 4h16l-4-4h-3v-10.052c2.396-0.238 4.54-1.322 6.136-2.948h1.364c4.143 0 7.5-3.357 7.5-7.5s-3.357-7.5-7.5-7.5zM2 7.5c0-2.514 1.696-4.61 4-5.267v5.767c0 1.816 0.492 3.516 1.339 4.983-2.961-0.087-5.339-2.501-5.339-5.483zM24.661 12.983c0.847-1.467 1.339-3.167 1.339-4.983v-5.767c2.304 0.656 4 2.753 4 5.267 0 2.982-2.378 5.396-5.339 5.483z"></path>
</symbol>
<symbol id="icon-home1" viewBox="0 0 32 32">
<path d="M32 18.451l-16-12.42-16 12.42v-5.064l16-12.42 16 12.42zM28 18v12h-8v-8h-8v8h-8v-12l12-9z"></path>
</symbol>
<symbol id="icon-pencil1" viewBox="0 0 32 32">
<path d="M27 0c2.761 0 5 2.239 5 5 0 1.126-0.372 2.164-1 3l-2 2-7-7 2-2c0.836-0.628 1.874-1 3-1zM2 23l-2 9 9-2 18.5-18.5-7-7-18.5 18.5zM22.362 11.362l-14 14-1.724-1.724 14-14 1.724 1.724z"></path>
</symbol>
<symbol id="icon-spoon-knife" viewBox="0 0 32 32">
<path d="M7 0c-3.314 0-6 3.134-6 7 0 3.31 1.969 6.083 4.616 6.812l-0.993 16.191c-0.067 1.098 0.778 1.996 1.878 1.996h1c1.1 0 1.945-0.898 1.878-1.996l-0.993-16.191c2.646-0.729 4.616-3.502 4.616-6.812 0-3.866-2.686-7-6-7zM27.167 0l-1.667 10h-1.25l-0.833-10h-0.833l-0.833 10h-1.25l-1.667-10h-0.833v13c0 0.552 0.448 1 1 1h2.604l-0.982 16.004c-0.067 1.098 0.778 1.996 1.878 1.996h1c1.1 0 1.945-0.898 1.878-1.996l-0.982-16.004h2.604c0.552 0 1-0.448 1-1v-13h-0.833z"></path>
</symbol>
<symbol id="icon-sun" viewBox="0 0 32 32">
<path d="M16 26c1.105 0 2 0.895 2 2v2c0 1.105-0.895 2-2 2s-2-0.895-2-2v-2c0-1.105 0.895-2 2-2zM16 6c-1.105 0-2-0.895-2-2v-2c0-1.105 0.895-2 2-2s2 0.895 2 2v2c0 1.105-0.895 2-2 2zM30 14c1.105 0 2 0.895 2 2s-0.895 2-2 2h-2c-1.105 0-2-0.895-2-2s0.895-2 2-2h2zM6 16c0 1.105-0.895 2-2 2h-2c-1.105 0-2-0.895-2-2s0.895-2 2-2h2c1.105 0 2 0.895 2 2zM25.899 23.071l1.414 1.414c0.781 0.781 0.781 2.047 0 2.828s-2.047 0.781-2.828 0l-1.414-1.414c-0.781-0.781-0.781-2.047 0-2.828s2.047-0.781 2.828 0zM6.101 8.929l-1.414-1.414c-0.781-0.781-0.781-2.047 0-2.828s2.047-0.781 2.828 0l1.414 1.414c0.781 0.781 0.781 2.047 0 2.828s-2.047 0.781-2.828 0zM25.899 8.929c-0.781 0.781-2.047 0.781-2.828 0s-0.781-2.047 0-2.828l1.414-1.414c0.781-0.781 2.047-0.781 2.828 0s0.781 2.047 0 2.828l-1.414 1.414zM6.101 23.071c0.781-0.781 2.047-0.781 2.828 0s0.781 2.047 0 2.828l-1.414 1.414c-0.781 0.781-2.047 0.781-2.828 0s-0.781-2.047 0-2.828l1.414-1.414z"></path>
<path d="M16 8c-4.418 0-8 3.582-8 8s3.582 8 8 8c4.418 0 8-3.582 8-8s-3.582-8-8-8zM16 21c-2.761 0-5-2.239-5-5s2.239-5 5-5 5 2.239 5 5-2.239 5-5 5z"></path>
</symbol>
</defs>
</svg>
