<?xml version="1.0" encoding="utf-8"?>
<!-- Generator: Adobe Illustrator 23.0.1, SVG Export Plug-In . SVG Version: 6.00 Build 0)  -->
<svg version="1.1" id="Layer_1" xmlns="http://www.w3.org/2000/svg" xmlns:xlink="http://www.w3.org/1999/xlink" x="0px" y="0px"
	 viewBox="0 0 260.6 43" style="enable-background:new 0 0 260.6 43;" xml:space="preserve">
<style type="text/css">
	.st0{fill:#393C43;}
</style>
<g>
	<path class="st0" d="M247.5,23.2c0,0-6.2-13.3-6.1-13.4h-2.6c-1.2,0-2,0.9-2,1.6c-0.1,0.4-2.5,22.1-2.5,22.1h4.5l1.5-13.7l6.1,13.7
		h4.7l2.6-23.7H249L247.5,23.2z"/>
	<path class="st0" d="M197.3,24c0,0-3.6-14.1-3.6-14.1h-3.4c-0.9,0-1.9,0.6-2.1,1.6c-0.1,1-2.5,22.1-2.5,22.1h4.5l1.3-12l3,12h2.8
		l5.8-12l-1.3,12.1h4.8l2.6-23.7h-5.7L197.3,24z"/>
	<path class="st0" d="M97.6,9.9c-0.9,0-1.8,0.6-2.1,1.4l-8.4,22.3h5.5l1.4-4.4h6.1l0.4,4.4h5.3l-3.8-23.7H97.6z M95.5,24.7l3.3-10.2
		l1,10.2H95.5z"/>
	<path class="st0" d="M221.6,9.9c-0.9,0-1.8,0.6-2.1,1.4l-8.4,22.3h5.5l1.4-4.4h6.2l0.4,4.4h5.3l-3.8-23.7H221.6z M219.5,24.7
		l3.3-10.2l1,10.2H219.5z"/>
	<path class="st0" d="M64,9.9h-3.3c0,0-1.6,0.1-2,1.7c0,0.1-2.6,21.9-2.6,21.9c0,0.1,11,0,11,0l0.5-4.6h-5.7L64,9.9z"/>
	<path class="st0" d="M74.7,11.5l-2.5,22h10.8l0.5-4.6h-5.8l0.5-4.6h4.6l0.5-4.5h-4.6l0.6-5.3h5.8l0.5-4.6h-9
		C75.7,9.9,74.8,10.6,74.7,11.5z"/>
	<path class="st0" d="M150.5,11.5l-2.5,22h10.8l0.5-4.6h-5.8l0.5-4.6h4.6l0.5-4.5h-4.6l0.6-5.3h5.9l0.5-4.6h-9
		C151.5,9.9,150.6,10.6,150.5,11.5z"/>
	<path class="st0" d="M109,11.5c0,0-0.3,3-0.3,3h4.4l-2.1,19.1h5.1l2.1-19.1h4l0.5-4.6h-11.8C110.3,9.9,109.2,10.3,109,11.5z"/>
	<path class="st0" d="M137.4,19.8h-5.9l1.1-9.9h-3.3c-1,0-2,0.8-2.1,1.7l-2.4,22h5.1l1-9.2h5.8l-1,9.2h5.1l2.6-23.7h-5.1L137.4,19.8
		z"/>
	<path class="st0" d="M179.8,11.5c-1.1-1.1-2.4-1.6-4.5-1.6h-5.5c-1.2,0-2,1-2.1,1.6c-0.1,0.5-2.4,22.1-2.4,22.1h5l1-8.7
		c0,0,3.6,8.7,3.6,8.7h5.2l-3.4-8.7c2.5-0.8,4.4-3.5,4.8-7.1c0.1-1.4,0-2.7-0.3-3.8C180.9,13,180.4,12.1,179.8,11.5z M176.3,17.7
		c-0.2,2-1.3,3.3-3,3.3l-1.6,0l0.7-6.6h1.6C175.8,14.5,176.6,15.7,176.3,17.7z"/>
	<path class="st0" d="M258.5,10.7c-0.2-0.2-0.3-0.2-0.6-0.2h-1.1l-0.3,3.4h0.6l0.1-1.2l0.1,0l0.4,1.1c0,0,0.1,0.1,0.2,0.1h0.6
		l-0.5-1.2l0,0l0,0c0.3-0.1,0.6-0.5,0.7-1c0-0.2,0-0.4,0-0.5C258.7,10.9,258.6,10.8,258.5,10.7z M257.9,12c-0.1,0.1-0.2,0.1-0.3,0.1
		h-0.2h0l0,0l0.1-1l0,0h0l0.2,0c0.1,0,0.2,0,0.3,0.1c0.1,0.1,0.1,0.2,0.1,0.4C258.1,11.8,258,11.9,257.9,12z"/>
	<path class="st0" d="M257.9,9.4c-1.7,0-3.2,1.2-3.3,2.8c-0.2,1.5,1,2.8,2.7,2.8c1.7,0,3.2-1.3,3.3-2.8
		C260.8,10.7,259.6,9.4,257.9,9.4z M260.2,12.2c-0.1,1.3-1.5,2.4-2.9,2.4c-1.5,0-2.5-1.1-2.4-2.4c0.1-1.4,1.5-2.4,2.9-2.4
		C259.3,9.8,260.4,10.9,260.2,12.2z"/>
	<path class="st0" d="M21.3,0C9.5,0.1-0.1,9.8,0,21.6c0,4.9,1.7,9.4,4.4,12.9l0.3-2.4c-1.9-3.1-3.1-6.7-3.1-10.6
		c-0.1-11,8.8-19.9,19.7-20c10.9-0.1,19.9,8.8,20,19.8c0.1,11-8.8,19.9-19.7,20c-2.9,0-5.7-0.6-8.2-1.7l-3.4,0
		c3.4,2.1,7.3,3.4,11.6,3.3c11.8-0.1,21.4-9.8,21.3-21.6C42.8,9.5,33.2-0.1,21.3,0z"/>
	<path class="st0" d="M15.3,4.5c-3.3,0.4-3.8,3.4-3.8,3.4L9.3,26.4l8.9,0l2.5-21.9C17.7,4.5,15.3,4.5,15.3,4.5z"/>
	<path class="st0" d="M31.7,35.4c0,0,3-0.2,3.8-3.4c0,0,0.3-2.4,0.6-5.5l-17.8,0l-1,8.9L31.7,35.4z"/>
	<polygon class="st0" points="5.9,37.6 14.8,37.6 15.9,28.7 6.9,28.7 	"/>
</g>
</svg>
